<svg width="28" height="22" viewBox="0 0 28 22" fill="none" xmlns="http://www.w3.org/2000/svg">
	<g clip-path="url(#clip0_153_1869)">
		<g clip-path="url(#clip1_153_1869)">
			<path d="M13.5677 0C14.3182 0 14.9245 0.606308 14.9245 1.35677V4.07032H20.0124C21.6999 4.07032 23.0651 5.43557 23.0651 7.12306V18.6556C23.0651 20.3431 21.6999 21.7084 20.0124 21.7084H7.12306C5.43557 21.7084 4.07032 20.3431 4.07032 18.6556V7.12306C4.07032 5.43557 5.43557 4.07032 7.12306 4.07032H12.211V1.35677C12.211 0.606308 12.8173 0 13.5677 0ZM8.81902 16.2813C8.44591 16.2813 8.14064 16.5865 8.14064 16.9597C8.14064 17.3328 8.44591 17.638 8.81902 17.638H10.1758C10.5489 17.638 10.8542 17.3328 10.8542 16.9597C10.8542 16.5865 10.5489 16.2813 10.1758 16.2813H8.81902ZM12.8893 16.2813C12.5162 16.2813 12.211 16.5865 12.211 16.9597C12.211 17.3328 12.5162 17.638 12.8893 17.638H14.2461C14.6192 17.638 14.9245 17.3328 14.9245 16.9597C14.9245 16.5865 14.6192 16.2813 14.2461 16.2813H12.8893ZM16.9597 16.2813C16.5865 16.2813 16.2813 16.5865 16.2813 16.9597C16.2813 17.3328 16.5865 17.638 16.9597 17.638H18.3164C18.6895 17.638 18.9948 17.3328 18.9948 16.9597C18.9948 16.5865 18.6895 16.2813 18.3164 16.2813H16.9597ZM11.1934 10.8542C11.1934 10.4044 11.0147 9.97301 10.6966 9.65495C10.3786 9.3369 9.94721 9.15822 9.49741 9.15822C9.04761 9.15822 8.61624 9.3369 8.29818 9.65495C7.98012 9.97301 7.80144 10.4044 7.80144 10.8542C7.80144 11.304 7.98012 11.7354 8.29818 12.0534C8.61624 12.3715 9.04761 12.5501 9.49741 12.5501C9.94721 12.5501 10.3786 12.3715 10.6966 12.0534C11.0147 11.7354 11.1934 11.304 11.1934 10.8542ZM17.638 12.5501C18.0878 12.5501 18.5192 12.3715 18.8373 12.0534C19.1553 11.7354 19.334 11.304 19.334 10.8542C19.334 10.4044 19.1553 9.97301 18.8373 9.65495C18.5192 9.3369 18.0878 9.15822 17.638 9.15822C17.1882 9.15822 16.7569 9.3369 16.4388 9.65495C16.1208 9.97301 15.9421 10.4044 15.9421 10.8542C15.9421 11.304 16.1208 11.7354 16.4388 12.0534C16.7569 12.3715 17.1882 12.5501 17.638 12.5501ZM2.03516 9.49741H2.71355V17.638H2.03516C0.911582 17.638 0 16.7265 0 15.6029V11.5326C0 10.409 0.911582 9.49741 2.03516 9.49741ZM25.1003 9.49741C26.2239 9.49741 27.1355 10.409 27.1355 11.5326V15.6029C27.1355 16.7265 26.2239 17.638 25.1003 17.638H24.4219V9.49741H25.1003Z" fill="url(#paint0_linear_153_1869)" />
		</g>
	</g>
	<defs>
		<linearGradient id="paint0_linear_153_1869" x1="-1.2727e-09" y1="7.00729" x2="27.247" y2="7.4251" gradientUnits="userSpaceOnUse">
			<stop stop-color="#613EEA" />
			<stop offset="1" stop-color="#9478FF" />
		</linearGradient>
		<clipPath id="clip0_153_1869">
			<rect width="27.1355" height="21.7084" fill="white" />
		</clipPath>
		<clipPath id="clip1_153_1869">
			<path d="M0 0H27.1355V21.7084H0V0Z" fill="white" />
		</clipPath>
	</defs>
</svg>
